<svg width="65" height="65" viewBox="0 0 65 65" fill="none" xmlns="http://www.w3.org/2000/svg">
<circle cx="32.5" cy="32.5" r="31.5" fill="white" stroke="#F7293C" stroke-width="2"/>
<g clip-path="url(#clip0_282_27)">
<path d="M27.8098 24.6201L23.2441 28.198L27.8098 31.778" stroke="#333333" stroke-linecap="round" stroke-linejoin="round"/>
<path d="M37.1902 24.6201L41.7558 28.198L37.1902 31.778" stroke="#333333" stroke-linecap="round" stroke-linejoin="round"/>
<path d="M34.7113 22.6008L30.3213 33.7974" stroke="#333333" stroke-linecap="round" stroke-linejoin="round"/>
<path d="M51.8979 40.6234C51.8979 41.926 50.8463 42.9807 49.5477 42.9807H15.4523C14.1536 42.9807 13.1021 41.926 13.1021 40.6234V18.4596C13.1021 17.157 14.1536 16.1023 15.4523 16.1023H49.5477C50.8463 16.1023 51.8979 17.157 51.8979 18.4596V40.6234Z" stroke="#333333" stroke-linecap="round" stroke-linejoin="round"/>
<path d="M15.5258 38.3665H49.4721" stroke="#333333" stroke-linecap="round" stroke-linejoin="round"/>
<path d="M28.7511 43.6321V48.8976" stroke="#333333" stroke-linecap="round" stroke-linejoin="round"/>
<path d="M36.2489 42.9807V48.8975" stroke="#333333" stroke-linecap="round" stroke-linejoin="round"/>
<path d="M25.1185 48.8975H39.8814" stroke="#333333" stroke-linecap="round" stroke-linejoin="round"/>
<path d="M32.5102 40.5825H32.4897V40.603H32.5102V40.5825Z" stroke="#333333" stroke-linecap="round" stroke-linejoin="round"/>
</g>
<defs>
<clipPath id="clip0_282_27">
<rect width="39" height="33" fill="white" transform="translate(13 16)"/>
</clipPath>
</defs>
</svg>
