<svg width="65" height="65" viewBox="0 0 65 65" fill="none" xmlns="http://www.w3.org/2000/svg">
<circle cx="32.5" cy="32.5" r="31.5" fill="white" stroke="#F7293C" stroke-width="2"/>
<g clip-path="url(#clip0_282_60)">
<path d="M46.8519 45.1615V22.3665C46.8519 18.3448 40.5479 15.1936 32.5 15.1936C24.4522 15.1936 18.3244 18.2565 18.1482 22.1964C18.1482 22.2111 18.1482 22.2258 18.1482 22.2405V45.1615M18.2141 38.0867C20.5034 40.8927 25.9677 42.8234 32.5 42.8234C39.0324 42.8234 44.4982 40.8927 46.786 38.0867M18.2141 45.1991C20.5034 47.9282 25.9677 49.8065 32.5 49.8065C39.0324 49.8065 44.4982 47.9298 46.786 45.1991M18.2141 29.9125C20.5034 32.7185 25.9677 34.6491 32.5 34.6491C39.0324 34.6491 44.4982 32.7185 46.786 29.9125M18.2141 21.7382C20.5034 24.5442 25.9677 26.4749 32.5 26.4749C39.0324 26.4749 44.4982 24.5442 46.786 21.7382" stroke="#333333" stroke-linecap="round" stroke-linejoin="round"/>
</g>
<defs>
<clipPath id="clip0_282_60">
<rect width="31" height="37" fill="white" transform="translate(17 14)"/>
</clipPath>
</defs>
</svg>
