<svg width="65" height="65" viewBox="0 0 65 65" fill="none" xmlns="http://www.w3.org/2000/svg">
<circle cx="32.5" cy="32.5" r="31.5" fill="white" stroke="#F7293C" stroke-width="2"/>
<g clip-path="url(#clip0_282_72)">
<path d="M38.1043 26.4045C38.1043 25.7369 38.0374 25.0843 37.9094 24.4524L40.8236 22.299C40.2312 20.503 39.2623 18.8743 38.0068 17.5033L34.6551 18.91C33.6633 18.0524 32.4995 17.381 31.2211 16.956L30.7835 13.3978C29.8758 13.2078 28.9356 13.1082 27.9706 13.1082C27.0056 13.1082 26.0654 13.2078 25.1577 13.3978L24.7201 16.956C23.4417 17.381 22.2779 18.0524 21.2862 18.91L17.9344 17.5033C16.6789 18.8743 15.7101 20.503 15.1177 22.299L18.0318 24.4524C17.9038 25.0843 17.8369 25.7369 17.8369 26.4045C17.8369 27.0721 17.9038 27.7266 18.0318 28.3566L15.1177 30.5119C15.7101 32.3079 16.6789 33.9366 17.9344 35.3076L21.2862 33.9009C22.2779 34.7585 23.4417 35.4299 24.7201 35.8549L25.1577 39.4131C26.0654 39.6031 27.0056 39.7027 27.9706 39.7027C28.9356 39.7027 29.8758 39.6031 30.7835 39.4131L31.2211 35.8549C32.4995 35.428 33.6633 34.7585 34.6551 33.9009L38.0068 35.3076C39.2623 33.9366 40.2312 32.3079 40.8236 30.5119L37.9094 28.3585C38.0374 27.7266 38.1043 27.074 38.1043 26.4064V26.4045ZM27.9706 31.3921C25.173 31.3921 22.9047 29.1597 22.9047 26.4045C22.9047 23.6493 25.173 21.4188 27.9706 21.4188C30.7682 21.4188 33.0365 23.6512 33.0365 26.4045C33.0365 29.1578 30.7682 31.3921 27.9706 31.3921Z" stroke="#333333" stroke-linecap="round" stroke-linejoin="round"/>
<path d="M37.2899 38.031L34.9584 37.0926C34.1754 37.8789 33.4119 39.0921 33 40.2889L35.0284 41.7257C34.939 42.1473 34.8924 42.5816 34.8924 43.027C34.8924 43.4723 34.939 43.9085 35.0284 44.3282L33 45.7651C33.4119 46.9618 34.0861 48.0486 34.9584 48.9613L37.2899 48.023C37.9796 48.5948 38.7898 49.042 39.6797 49.326L39.9847 51.6994C40.6161 51.8259 41.2709 51.8918 41.9412 51.8918C42.6115 51.8918 43.2662 51.8259 43.8977 51.6994L44.2027 49.326C45.0925 49.042 45.9008 48.5948 46.5925 48.023L48.9239 48.9613C49.7963 48.0486 50.4705 46.9618 50.8824 45.7651L48.854 44.3282C48.9434 43.9067 48.99 43.4723 48.99 43.027C48.99 42.5816 48.9434 42.1473 48.854 41.7257L50.8824 40.2889C50.4705 39.0921 49.7963 38.0053 48.9239 37.0926L46.5925 38.031C45.9027 37.4592 45.0925 37.012 44.2027 36.7279L43.8977 34.3545C43.2662 34.2281 42.6115 34.1621 41.9412 34.1621M41.9392 46.3515C39.9925 46.3515 38.4148 44.8634 38.4148 43.027C38.4148 41.1906 39.9925 39.7024 41.9392 39.7024C43.886 39.7024 45.4636 41.1906 45.4636 43.027C45.4636 44.8634 43.886 46.3515 41.9392 46.3515Z" stroke="#333333" stroke-linecap="round" stroke-linejoin="round"/>
</g>
<defs>
<clipPath id="clip0_282_72">
<rect width="38" height="41" fill="white" transform="translate(14 12)"/>
</clipPath>
</defs>
</svg>
